<svg xmlns="http://www.w3.org/2000/svg" width="80" height="80" viewBox="0 0 80 80">
  <!-- Ember road, hover: lifted face, gold halo. -->
  <defs>
    <linearGradient id="edge" x1="0" y1="0" x2="0" y2="1">
      <stop offset="0" stop-color="#d9b47a"/>
      <stop offset="0.5" stop-color="#7a6540"/>
      <stop offset="1" stop-color="#33270f"/>
    </linearGradient>
    <linearGradient id="face" x1="0" y1="0" x2="0" y2="1">
      <stop offset="0" stop-color="#9a742e"/>
      <stop offset="0.45" stop-color="#5a4218"/>
      <stop offset="1" stop-color="#2e2008"/>
    </linearGradient>
    <linearGradient id="sheen" x1="0" y1="0" x2="0" y2="1">
      <stop offset="0" stop-color="#fff3d6" stop-opacity="0.5"/>
      <stop offset="1" stop-color="#fff3d6" stop-opacity="0"/>
    </linearGradient>
  </defs>
  <path d="M 19 6 H 63 L 77 20 V 62 L 63 76 H 19 L 5 62 V 20 Z" fill="#02030a" opacity="0.5"/>
  <path d="M 15 1 H 65 L 79 15 V 65 L 65 79 H 15 L 1 65 V 15 Z" fill="none" stroke="#f2c14e" stroke-width="2.2" opacity="0.85"/>
  <path d="M 16 2 H 64 L 78 16 V 64 L 64 78 H 16 L 2 64 V 16 Z" fill="url(#edge)"/>
  <path d="M 5 15 L 17 3 H 63 L 75 15" fill="none" stroke="#ffe9b8" stroke-width="2.4" opacity="0.9"/>
  <path d="M 19 7 H 61 L 73 19 V 61 L 61 73 H 19 L 7 61 V 19 Z" fill="#2e2008"/>
  <path d="M 20 9 H 60 L 71 20 V 60 L 60 71 H 20 L 9 60 V 20 Z" fill="url(#face)"/>
  <polygon points="20,9 60,9 66,15 66,29 14,29 14,15" fill="url(#sheen)"/>
  <polygon points="14,55 66,55 66,65 60,71 20,71 14,65" fill="#000000" opacity="0.16"/>
  <path d="M 24 13 H 56 L 67 24 V 56 L 56 67 H 24 L 13 56 V 24 Z" fill="none" stroke="#ffe1a1" stroke-width="1.6" opacity="0.9"/>
  <g fill="none" stroke="#c99a3e" stroke-width="1.4">
    <path d="M 22 19 L 25 22 L 22 25 L 19 22 Z"/>
    <path d="M 58 19 L 61 22 L 58 25 L 55 22 Z"/>
    <path d="M 22 55 L 25 58 L 22 61 L 19 58 Z"/>
    <path d="M 58 55 L 61 58 L 58 61 L 55 58 Z"/>
  </g>
</svg>
