<svg xmlns="http://www.w3.org/2000/svg" width="80" height="80" viewBox="0 0 80 80">
  <!-- Crest: a lit beacon lantern on its post. -->
  <defs>
    <radialGradient id="glow" cx="0.5" cy="0.42" r="0.5">
      <stop offset="0" stop-color="#f2c14e" stop-opacity="0.5"/>
      <stop offset="1" stop-color="#f2c14e" stop-opacity="0"/>
    </radialGradient>
    <linearGradient id="bronze" x1="0" y1="0" x2="0" y2="1">
      <stop offset="0" stop-color="#d9b47a"/>
      <stop offset="1" stop-color="#4a3a24"/>
    </linearGradient>
    <radialGradient id="glass" cx="0.5" cy="0.4" r="0.65">
      <stop offset="0" stop-color="#fff3d6"/>
      <stop offset="0.55" stop-color="#f2c14e"/>
      <stop offset="1" stop-color="#b07a24"/>
    </radialGradient>
  </defs>
  <circle cx="40" cy="32" r="30" fill="url(#glow)"/>
  <rect x="36" y="48" width="8" height="20" rx="2" fill="url(#bronze)"/>
  <rect x="28" y="68" width="24" height="7" rx="3" fill="url(#bronze)"/>
  <rect x="28" y="68" width="24" height="3" rx="1.5" fill="#ffffff" opacity="0.25"/>
  <rect x="28" y="20" width="24" height="28" rx="7" fill="url(#glass)"/>
  <rect x="28" y="20" width="24" height="28" rx="7" fill="none" stroke="#3a2c14" stroke-width="3"/>
  <path d="M 26 20 L 40 8 L 54 20 Z" fill="url(#bronze)"/>
  <path d="M 26 20 L 40 8 L 54 20 Z" fill="none" stroke="#241c0e" stroke-width="2"/>
  <circle cx="40" cy="8" r="3.4" fill="#f2c14e"/>
  <path d="M 40 28 C 44 33 44 38 40 41 C 36 38 36 33 40 28 Z" fill="#fff8e6"/>
  <rect x="31" y="23" width="4" height="22" rx="2" fill="#ffffff" opacity="0.5"/>
</svg>
