<svg xmlns="http://www.w3.org/2000/svg" width="80" height="80" viewBox="0 0 80 80">
  <!-- Crest: the journey book, open, with a gold ribbon. -->
  <defs>
    <linearGradient id="cover" x1="0" y1="0" x2="0" y2="1">
      <stop offset="0" stop-color="#3d6b74"/>
      <stop offset="1" stop-color="#1d3038"/>
    </linearGradient>
    <linearGradient id="page" x1="0" y1="0" x2="0" y2="1">
      <stop offset="0" stop-color="#fbf4e2"/>
      <stop offset="1" stop-color="#d9cba4"/>
    </linearGradient>
  </defs>
  <path d="M 10 22 C 22 18 32 18 40 24 C 48 18 58 18 70 22 L 70 60 C 58 56 48 56 40 62 C 32 56 22 56 10 60 Z" fill="url(#cover)"/>
  <path d="M 10 22 C 22 18 32 18 40 24 C 48 18 58 18 70 22 L 70 60 C 58 56 48 56 40 62 C 32 56 22 56 10 60 Z" fill="none" stroke="#10161c" stroke-width="2.5"/>
  <path d="M 13 25 C 23 21.5 31 21.5 38 26 L 38 57 C 31 52.5 23 52.5 13 56 Z" fill="url(#page)"/>
  <path d="M 67 25 C 57 21.5 49 21.5 42 26 L 42 57 C 49 52.5 57 52.5 67 56 Z" fill="url(#page)"/>
  <rect x="38" y="24" width="4" height="36" fill="#8a7a52" opacity="0.8"/>
  <g stroke="#a89a6c" stroke-width="1.6" opacity="0.85">
    <line x1="18" y1="32" x2="33" y2="30.5"/>
    <line x1="18" y1="38" x2="33" y2="36.5"/>
    <line x1="47" y1="30.5" x2="62" y2="32"/>
    <line x1="47" y1="36.5" x2="62" y2="38"/>
  </g>
  <path d="M 56 56 L 62 56 L 62 72 L 59 69 L 56 72 Z" fill="#c99a3e"/>
  <path d="M 56 56 L 62 56 L 62 72 L 59 69 L 56 72 Z" fill="none" stroke="#6b4a16" stroke-width="1.4"/>
</svg>
