<svg xmlns="http://www.w3.org/2000/svg" width="80" height="80" viewBox="0 0 80 80">
  <!-- Crest: the watching moon in a bronze ring. -->
  <defs>
    <linearGradient id="bronze" x1="0" y1="0" x2="0" y2="1">
      <stop offset="0" stop-color="#d9b47a"/>
      <stop offset="0.5" stop-color="#8a6f4d"/>
      <stop offset="1" stop-color="#4a3a24"/>
    </linearGradient>
    <linearGradient id="moon" x1="0" y1="0" x2="1" y2="1">
      <stop offset="0" stop-color="#e4f6f2"/>
      <stop offset="1" stop-color="#5fa8a2"/>
    </linearGradient>
  </defs>
  <circle cx="40" cy="40" r="33" fill="#0a0e24"/>
  <circle cx="40" cy="40" r="33" fill="none" stroke="url(#bronze)" stroke-width="7"/>
  <circle cx="40" cy="40" r="27" fill="none" stroke="#f2c14e" stroke-width="1.6" opacity="0.8"/>
  <path fill-rule="evenodd" fill="url(#moon)" d="M 38 22 A 18 18 0 1 0 38 58 A 18 18 0 1 0 38 22 Z M 46 25 A 14 14 0 1 1 46 53 A 14 14 0 1 1 46 25 Z"/>
  <path d="M 54 52 Q 54.9 58.1 61 59 Q 54.9 59.9 54 66 Q 53.1 59.9 47 59 Q 53.1 58.1 54 52 Z" fill="#f4ead2"/>
</svg>
